<svg width="38" height="39" viewBox="0 0 38 39" fill="none" xmlns="http://www.w3.org/2000/svg">
<path fill-rule="evenodd" clip-rule="evenodd" d="M18.9501 9.5C19.6404 9.5 20.2001 10.0596 20.2001 10.75V28.25C20.2001 28.9404 19.6404 29.5 18.9501 29.5C18.2597 29.5 17.7001 28.9404 17.7001 28.25V10.75C17.7001 10.0596 18.2597 9.5 18.9501 9.5Z" fill="#7D7D7D"/>
<path fill-rule="evenodd" clip-rule="evenodd" d="M8.94971 19.5C8.94971 18.8096 9.50935 18.25 10.1997 18.25H27.6997C28.3901 18.25 28.9497 18.8096 28.9497 19.5C28.9497 20.1904 28.3901 20.75 27.6997 20.75H10.1997C9.50935 20.75 8.94971 20.1904 8.94971 19.5Z" fill="#7D7D7D"/>
<path fill-rule="evenodd" clip-rule="evenodd" d="M18.9497 3.25C9.97508 3.25 2.69971 10.5254 2.69971 19.5C2.69971 28.4746 9.97508 35.75 18.9497 35.75C27.9243 35.75 35.1997 28.4746 35.1997 19.5C35.1997 10.5254 27.9243 3.25 18.9497 3.25ZM0.199707 19.5C0.199707 9.14466 8.59437 0.75 18.9497 0.75C29.305 0.75 37.6997 9.14466 37.6997 19.5C37.6997 29.8553 29.305 38.25 18.9497 38.25C8.59437 38.25 0.199707 29.8553 0.199707 19.5Z" fill="#7D7D7D"/>
</svg>
