<svg width="43" height="39" viewBox="0 0 43 39" fill="none" xmlns="http://www.w3.org/2000/svg">
<path fill-rule="evenodd" clip-rule="evenodd" d="M38.2795 1.7395C38.9422 1.7395 39.4795 2.27676 39.4795 2.9395V37.0001C39.4795 37.6628 38.9422 38.2001 38.2795 38.2001H27.5127C26.8499 38.2001 26.3127 37.6628 26.3127 37.0001V25.0457H18.648V36.7652C18.648 37.4279 18.1107 37.9652 17.448 37.9652H6.44713C5.78439 37.9652 5.24713 37.4279 5.24713 36.7652V19.6175C5.24713 18.9547 5.78439 18.4175 6.44713 18.4175C7.10987 18.4175 7.64713 18.9547 7.64713 19.6175V35.5652H16.248V23.8457C16.248 23.1829 16.7852 22.6457 17.448 22.6457H27.5127C28.1754 22.6457 28.7127 23.1829 28.7127 23.8457V35.8001H37.0795V2.9395C37.0795 2.27676 37.6167 1.7395 38.2795 1.7395Z" fill="#7D7D7D"/>
<path fill-rule="evenodd" clip-rule="evenodd" d="M21.4411 1.01705C21.8507 0.730235 22.3953 0.727512 22.8077 1.01022L42.0007 14.1646C42.5474 14.5393 42.6868 15.2862 42.3122 15.8329C41.9375 16.3795 41.1906 16.519 40.6439 16.1443L22.1366 3.45984L2.6883 17.077C2.1454 17.4572 1.39715 17.3252 1.01703 16.7823C0.636911 16.2394 0.768866 15.4912 1.31176 15.1111L21.4411 1.01705Z" fill="#7D7D7D"/>
</svg>
