<svg width="38" height="38" viewBox="0 0 38 38" fill="none" xmlns="http://www.w3.org/2000/svg">
<path fill-rule="evenodd" clip-rule="evenodd" d="M18.403 3C13.8726 3 10.1999 6.67266 10.1999 11.2031C10.1999 15.7336 13.8726 19.4062 18.403 19.4062C22.9335 19.4062 26.6061 15.7336 26.6061 11.2031C26.6061 6.67266 22.9335 3 18.403 3ZM7.69989 11.2031C7.69989 5.29195 12.4918 0.5 18.403 0.5C24.3142 0.5 29.1061 5.29195 29.1061 11.2031C29.1061 17.1143 24.3142 21.9062 18.403 21.9062C12.4918 21.9062 7.69989 17.1143 7.69989 11.2031Z" fill="#7D7D7D"/>
<path fill-rule="evenodd" clip-rule="evenodd" d="M0.199829 38C0.199829 27.6446 8.59449 19.25 18.9498 19.25C29.3052 19.25 37.6998 27.6446 37.6998 38H35.1998C35.1998 29.0254 27.9244 21.75 18.9498 21.75C9.9752 21.75 2.69983 29.0254 2.69983 38H0.199829Z" fill="#7D7D7D"/>
</svg>
