<svg width="23" height="23" viewBox="0 0 23 23" fill="none" xmlns="http://www.w3.org/2000/svg">
<path d="M6.61089 0.751165L6.61869 0.750799C6.63879 0.749856 6.65893 0.749748 6.67904 0.750474C6.77381 0.750003 6.86778 0.768065 6.95564 0.803639C7.04594 0.8402 7.12797 0.894528 7.19687 0.963404L7.19687 0.963405C7.26576 1.03227 7.32012 1.11428 7.35671 1.20458C7.39302 1.2942 7.41108 1.39016 7.40985 1.48683V2.62907H15.5152V1.4868C15.514 1.39205 15.5314 1.29797 15.5663 1.20986C15.6014 1.12106 15.6538 1.04007 15.7202 0.971503M6.61089 0.751165L15.7202 0.971503M6.61089 0.751165L6.60312 0.752017M6.61089 0.751165L6.60312 0.752017M15.7202 0.971503C15.7202 0.971502 15.7202 0.971502 15.7202 0.971501M15.7202 0.971503L15.7202 0.971501M6.60312 0.752017C6.42238 0.771856 6.25562 0.858674 6.13573 0.995354M6.60312 0.752017L6.13573 0.995354M16.0529 1.03968L15.9537 0.81021C16.0414 0.772309 16.1356 0.752044 16.2311 0.750555L16.0529 1.03968ZM16.0529 1.03968L15.9537 0.810211C15.866 0.848128 15.7867 0.902948 15.7202 0.971501M16.0529 1.03968L15.7202 0.971501M6.13573 0.995354C6.01648 1.13129 5.95219 1.30676 5.95535 1.4875M6.13573 0.995354L5.95535 1.4875M5.95535 1.4875V2.62907H3.66997C2.0691 2.62907 0.750364 3.94417 0.750364 5.5478V8.35071V8.40598C0.749879 8.42131 0.749879 8.43666 0.750364 8.45199V19.3313C0.750364 20.9349 2.06843 22.25 3.66997 22.25H19.3371C20.9396 22.25 22.2493 20.934 22.2493 19.3313V8.48094C22.2495 8.47081 22.2496 8.46069 22.2494 8.45056C22.2502 8.43015 22.2502 8.40972 22.2493 8.38932V5.5478C22.2493 3.94508 20.9389 2.62907 19.3371 2.62907H16.9697V1.4868C16.971 1.39013 16.9529 1.29419 16.9166 1.20458C16.88 1.11428 16.8256 1.03227 16.7568 0.963405C16.6879 0.894527 16.6058 0.840199 16.5155 0.803639C16.4253 0.767093 16.3286 0.749029 16.2311 0.750554L5.95535 1.4875ZM5.95535 4.08325H3.66997C2.86598 4.08325 2.20486 4.74045 2.20486 5.5478V7.72053H20.7948V5.5478C20.7948 4.73904 20.1397 4.08325 19.3371 4.08325H16.9697L16.9697 5.22671C16.9697 5.22688 16.9697 5.22706 16.9697 5.22723C16.9697 5.22724 16.9697 5.22725 16.9697 5.22726C16.9699 5.3227 16.9512 5.41724 16.9148 5.50547C16.8784 5.59388 16.8248 5.67422 16.7573 5.7419L16.5803 5.56529L16.7573 5.7419C16.6897 5.80958 16.6095 5.86327 16.5211 5.89991C16.4328 5.93655 16.3381 5.9554 16.2425 5.9554C16.1469 5.9554 16.0522 5.93655 15.9638 5.89991C15.8755 5.86328 15.7953 5.80958 15.7277 5.7419C15.6602 5.67422 15.6066 5.59388 15.5701 5.50548C15.5337 5.41723 15.5151 5.32269 15.5152 5.22726C15.5152 5.22724 15.5152 5.22723 15.5152 5.22722C15.5152 5.22705 15.5152 5.22688 15.5152 5.22671L15.5152 4.08325H7.40985L7.40985 5.22671C7.40985 5.22679 7.40985 5.22687 7.40985 5.22694V5.22726H7.15985C7.15999 5.29 7.14774 5.35215 7.12382 5.41015L5.95535 4.08325ZM5.95535 4.08325L5.95535 5.22671C5.95535 5.22679 5.95535 5.22686 5.95535 5.22694M5.95535 4.08325V5.22694M5.95535 5.22694V5.22726H6.20535L5.95535 5.22694ZM2.20486 9.17471H20.7948V19.3313C20.7948 20.14 20.1391 20.7958 19.3371 20.7958H3.66997C2.86656 20.7958 2.20486 20.1386 2.20486 19.3313V9.17471Z" fill="#36C9C6" stroke="#36C9C6" stroke-width="0.5"/>
</svg>
