<svg width="27" height="27" viewBox="0 0 27 27" fill="none" xmlns="http://www.w3.org/2000/svg">
<circle cx="13.5" cy="13.5" r="13.5" fill="#8CE4E3"/>
<path d="M19.2692 10.0383C18.9503 10.0383 18.6923 10.2966 18.6923 10.6153V19.0218C18.6923 19.4685 18.1638 19.846 17.5385 19.846H9.46154C8.83616 19.846 8.30769 19.4685 8.30769 19.0218V10.6153C8.30769 10.2966 8.04937 10.0383 7.73077 10.0383C7.41217 10.0383 7.15385 10.2966 7.15385 10.6153V19.0218C7.15385 20.1125 8.1891 20.9999 9.46154 20.9999H17.5385C18.8112 20.9999 19.8462 20.1125 19.8462 19.0218V10.6153C19.8462 10.2966 19.5881 10.0383 19.2692 10.0383Z" fill="white"/>
<path d="M20.4231 8.30769H16.3846V7.15385C16.3846 6.51748 15.8668 6 15.2308 6H11.7692C11.1329 6 10.6154 6.51748 10.6154 7.15385V8.30769H6.57692C6.25832 8.30769 6 8.56601 6 8.88462C6 9.20322 6.25832 9.46154 6.57692 9.46154H10.6154H16.3846H20.4231C20.742 9.46154 21 9.20322 21 8.88462C21 8.56601 20.742 8.30769 20.4231 8.30769ZM11.7692 8.30769V7.15385H15.2308V8.30769H11.7692Z" fill="white"/>
<path d="M11.1923 18.6924V11.1924C11.1923 10.8738 10.934 10.6155 10.6154 10.6155C10.2968 10.6155 10.0385 10.8738 10.0385 11.1924V18.6924C10.0385 19.011 10.2968 19.2693 10.6154 19.2693C10.934 19.2693 11.1923 19.011 11.1923 18.6924Z" fill="white"/>
<path d="M14.0769 18.6924V11.1924C14.0769 10.8738 13.8186 10.6155 13.5 10.6155C13.1814 10.6155 12.9231 10.8738 12.9231 11.1924V18.6924C12.9231 19.011 13.1814 19.2693 13.5 19.2693C13.8186 19.2693 14.0769 19.011 14.0769 18.6924Z" fill="white"/>
<path d="M16.9615 18.7885V11.1924C16.9615 10.8738 16.7035 10.6155 16.3846 10.6155C16.0657 10.6155 15.8077 10.8738 15.8077 11.1924V18.7885C15.8077 19.1071 16.0657 19.3654 16.3846 19.3654C16.7035 19.3654 16.9615 19.1071 16.9615 18.7885Z" fill="white"/>
</svg>
