<svg width="125" height="33" viewBox="0 0 125 33" fill="none" xmlns="http://www.w3.org/2000/svg">
<path d="M11.544 12.448L20.664 24H14.04L6.36 13.856V24H0.888V1.376H6.36V11.328L14.104 1.376H20.664L11.544 12.448ZM31.3338 5.92C33.1044 5.92 34.6831 6.29333 36.0698 7.04C37.4778 7.76533 38.5764 8.82133 39.3658 10.208C40.1764 11.5947 40.5818 13.216 40.5818 15.072C40.5818 16.928 40.1764 18.5493 39.3658 19.936C38.5764 21.3227 37.4778 22.3893 36.0698 23.136C34.6831 23.8613 33.1044 24.224 31.3338 24.224C29.5631 24.224 27.9738 23.8613 26.5658 23.136C25.1578 22.3893 24.0484 21.3227 23.2378 19.936C22.4484 18.5493 22.0538 16.928 22.0538 15.072C22.0538 13.216 22.4484 11.5947 23.2378 10.208C24.0484 8.82133 25.1578 7.76533 26.5658 7.04C27.9738 6.29333 29.5631 5.92 31.3338 5.92ZM31.3338 10.656C30.2884 10.656 29.4031 11.04 28.6778 11.808C27.9738 12.5547 27.6218 13.6427 27.6218 15.072C27.6218 16.5013 27.9738 17.5893 28.6778 18.336C29.4031 19.0827 30.2884 19.456 31.3338 19.456C32.3791 19.456 33.2538 19.0827 33.9578 18.336C34.6618 17.5893 35.0138 16.5013 35.0138 15.072C35.0138 13.6427 34.6618 12.5547 33.9578 11.808C33.2538 11.04 32.3791 10.656 31.3338 10.656ZM48.8913 0.32V24H43.4193V0.32H48.8913ZM58.1413 0.32V24H52.6693V0.32H58.1413ZM68.7033 5.92C70.0686 5.92 71.2419 6.22933 72.2233 6.848C73.2046 7.46667 73.9299 8.30933 74.3993 9.376V6.144H79.8393V24H74.3993V20.768C73.9299 21.8347 73.2046 22.6773 72.2233 23.296C71.2419 23.9147 70.0686 24.224 68.7033 24.224C67.2313 24.224 65.9086 23.8613 64.7352 23.136C63.5833 22.3893 62.6659 21.3227 61.9833 19.936C61.3219 18.5493 60.9913 16.928 60.9913 15.072C60.9913 13.1947 61.3219 11.5733 61.9833 10.208C62.6659 8.82133 63.5833 7.76533 64.7352 7.04C65.9086 6.29333 67.2313 5.92 68.7033 5.92ZM70.4633 10.72C69.2899 10.72 68.3406 11.104 67.6153 11.872C66.9113 12.64 66.5593 13.7067 66.5593 15.072C66.5593 16.4373 66.9113 17.504 67.6153 18.272C68.3406 19.04 69.2899 19.424 70.4633 19.424C71.6153 19.424 72.5539 19.0293 73.2793 18.24C74.0259 17.4507 74.3993 16.3947 74.3993 15.072C74.3993 13.728 74.0259 12.672 73.2793 11.904C72.5539 11.1147 71.6153 10.72 70.4633 10.72ZM94.7428 5.92C96.2148 5.92 97.5268 6.29333 98.6788 7.04C99.8521 7.76533 100.769 8.82133 101.431 10.208C102.113 11.5733 102.455 13.1947 102.455 15.072C102.455 16.928 102.113 18.5493 101.431 19.936C100.769 21.3227 99.8521 22.3893 98.6788 23.136C97.5268 23.8613 96.2148 24.224 94.7428 24.224C93.3774 24.224 92.2041 23.9147 91.2228 23.296C90.2414 22.6773 89.5268 21.8347 89.0788 20.768V32.512H83.6068V6.144H89.0788V9.376C89.5268 8.30933 90.2414 7.46667 91.2228 6.848C92.2041 6.22933 93.3774 5.92 94.7428 5.92ZM92.9828 10.72C91.8308 10.72 90.8814 11.1147 90.1348 11.904C89.4094 12.672 89.0468 13.728 89.0468 15.072C89.0468 16.3947 89.4094 17.4507 90.1348 18.24C90.8814 19.0293 91.8308 19.424 92.9828 19.424C94.1561 19.424 95.0948 19.04 95.7988 18.272C96.5241 17.504 96.8868 16.4373 96.8868 15.072C96.8868 13.7067 96.5241 12.64 95.7988 11.872C95.0948 11.104 94.1561 10.72 92.9828 10.72ZM116.43 5.92C117.902 5.92 119.214 6.29333 120.366 7.04C121.54 7.76533 122.457 8.82133 123.118 10.208C123.801 11.5733 124.142 13.1947 124.142 15.072C124.142 16.928 123.801 18.5493 123.118 19.936C122.457 21.3227 121.54 22.3893 120.366 23.136C119.214 23.8613 117.902 24.224 116.43 24.224C115.065 24.224 113.892 23.9147 112.91 23.296C111.929 22.6773 111.214 21.8347 110.766 20.768V32.512H105.294V6.144H110.766V9.376C111.214 8.30933 111.929 7.46667 112.91 6.848C113.892 6.22933 115.065 5.92 116.43 5.92ZM114.67 10.72C113.518 10.72 112.569 11.1147 111.822 11.904C111.097 12.672 110.734 13.728 110.734 15.072C110.734 16.3947 111.097 17.4507 111.822 18.24C112.569 19.0293 113.518 19.424 114.67 19.424C115.844 19.424 116.782 19.04 117.486 18.272C118.212 17.504 118.574 16.4373 118.574 15.072C118.574 13.7067 118.212 12.64 117.486 11.872C116.782 11.104 115.844 10.72 114.67 10.72Z" fill="#FF899E"/>
</svg>
