<svg width="29" height="29" viewBox="0 0 29 29" fill="none" xmlns="http://www.w3.org/2000/svg">
<g clip-path="url(#clip0)">
<path d="M29 4.09949C27.8856 4.58468 26.6982 4.90628 25.4602 5.06244C26.7338 4.30769 27.7058 3.12167 28.1628 1.69212C26.9754 2.39481 25.6643 2.89115 24.2671 3.16814C23.1396 1.97654 21.5327 1.23853 19.7796 1.23853C16.3784 1.23853 13.6402 3.97865 13.6402 7.33782C13.6402 7.82115 13.6814 8.2859 13.7826 8.72833C8.67512 8.48109 4.15577 6.05141 1.11977 2.35019C0.589734 3.26295 0.27883 4.30769 0.27883 5.43237C0.27883 7.54417 1.37449 9.41615 3.00767 10.4999C2.02064 10.4813 1.05234 10.1969 0.232007 9.74891C0.232007 9.7675 0.232007 9.79167 0.232007 9.81583C0.232007 12.779 2.36151 15.2403 5.15403 15.8073C4.65396 15.943 4.10894 16.0081 3.54332 16.0081C3.15001 16.0081 2.75295 15.9858 2.38024 15.904C3.17623 18.3188 5.43497 20.0941 8.12073 20.1517C6.03056 21.7746 3.37663 22.7524 0.50358 22.7524C-0.000234488 22.7524 -0.483447 22.7301 -0.96666 22.6688C1.75469 24.4106 4.97985 25.4052 8.45786 25.4052C19.7628 25.4052 25.9434 16.1103 25.9434 8.05352C25.9434 7.78397 25.934 7.52372 25.9209 7.26532C27.1402 6.40647 28.1647 5.33385 29 4.09949Z" fill="#03A9F4"/>
</g>
<defs>
<clipPath id="clip0">
<rect width="29" height="29" fill="white"/>
</clipPath>
</defs>
</svg>
