<svg width="49" height="42" viewBox="0 0 49 42" fill="none" xmlns="http://www.w3.org/2000/svg">
<path d="M0.996382 16.7192L0.99639 16.7192L20.2024 1.9389C21.351 1.05445 22.8041 0.65 24.2335 0.65C25.6627 0.65 27.1124 1.05175 28.2645 1.9388L28.2643 1.93869L28.0511 2.21622L28.2646 1.9389L40.9781 11.7086V2.69404C40.9752 2.57683 40.9956 2.46017 41.0379 2.35077C41.081 2.23951 41.146 2.13803 41.2291 2.05237C41.3121 1.9667 41.4116 1.89861 41.5214 1.85213C41.6312 1.80568 41.7493 1.78175 41.8685 1.78176L0.996382 16.7192ZM0.996382 16.7192L0.993908 16.7212M0.996382 16.7192L0.993908 16.7212M0.993908 16.7212C0.901147 16.7939 0.823621 16.8842 0.765757 16.9869C0.707891 17.0896 0.670822 17.2026 0.656665 17.3196C0.642508 17.4367 0.65154 17.5553 0.683246 17.6688C0.714952 17.7824 0.768712 17.8885 0.841451 17.9813C0.914191 18.074 1.00449 18.1515 1.10719 18.2094C1.20989 18.2672 1.32298 18.3043 1.43999 18.3184C1.55701 18.3325 1.67567 18.3235 1.78918 18.2917C1.90213 18.2602 2.00778 18.2068 2.10019 18.1346C2.10065 18.1342 2.10112 18.1338 2.10158 18.1335L21.2882 3.35501C22.0738 2.75011 23.1403 2.43108 24.2335 2.43108C25.3265 2.43108 26.3964 2.75261 27.1787 3.35502L27.179 3.35522M0.993908 16.7212L27.179 3.35522M27.179 3.35522L40.9781 13.9596V39.5689H31.1207V25.8311V25.831M27.179 3.35522L31.1207 25.831M31.1207 25.831C31.1206 25.5949 31.0268 25.3684 30.8598 25.2014C30.6928 25.0344 30.4663 24.9406 30.2302 24.9405H30.2301M31.1207 25.831L30.2301 24.9405M30.2301 24.9405H18.2875H18.2875M30.2301 24.9405H18.2875M18.2875 24.9405C18.0513 24.9406 17.8249 25.0344 17.6579 25.2014C17.4909 25.3684 17.397 25.5949 17.397 25.831V25.8311M18.2875 24.9405L17.397 25.8311M17.397 25.8311V39.5689H7.52269V22.2184C7.52397 22.1013 7.50217 21.9851 7.45851 21.8765C7.41451 21.767 7.34918 21.6673 7.26633 21.5833C7.18347 21.4993 7.08474 21.4325 6.97587 21.387C6.867 21.3414 6.75016 21.318 6.63214 21.318C6.51413 21.318 6.39729 21.3414 6.28842 21.387C6.17955 21.4325 6.08082 21.4993 5.99796 21.5833C5.91511 21.6673 5.84978 21.767 5.80577 21.8765C5.76212 21.9851 5.74031 22.1013 5.7416 22.2184V40.4595C5.74163 40.6957 5.83546 40.9222 6.00245 41.0892C6.16945 41.2562 6.39594 41.35 6.63211 41.35H18.2875C18.5238 41.35 18.7502 41.2562 18.9172 41.0892C19.0842 40.9222 19.1781 40.6957 19.1781 40.4595V26.7216H29.3396V40.4595C29.3396 40.6957 29.4334 40.9222 29.6004 41.0892C29.7674 41.2562 29.9939 41.35 30.2301 41.35H41.8686C42.1048 41.35 42.3313 41.2562 42.4983 41.0892C42.6653 40.9222 42.7591 40.6957 42.7592 40.4595V15.3413L46.3992 18.1335C46.3997 18.1338 46.4002 18.1342 46.4007 18.1346C46.493 18.2068 46.5987 18.2602 46.7116 18.2917C46.8251 18.3235 46.9438 18.3325 47.0608 18.3184C47.1778 18.3043 47.2909 18.2672 47.3936 18.2094C47.4963 18.1515 47.5866 18.074 47.6593 17.9813C47.7321 17.8885 47.7858 17.7824 47.8175 17.6688C47.8492 17.5553 47.8583 17.4367 47.8441 17.3196C47.83 17.2026 47.7929 17.0896 47.735 16.9869C47.6772 16.8842 47.5996 16.7939 47.5069 16.7212L47.5041 16.7191M17.397 25.8311L47.5041 16.7191M47.5041 16.7191L42.7592 13.0741M47.5041 16.7191L42.7592 13.0741M42.7592 13.0741V2.69389C42.762 2.57673 42.7417 2.46012 42.6993 2.35077C42.6563 2.2395 42.5913 2.13802 42.5082 2.05237C42.4251 1.96671 42.3257 1.89861 42.2158 1.85213C42.106 1.80568 41.988 1.78175 41.8688 1.78176L42.7592 13.0741ZM22.3538 33.1449C21.6488 33.1449 21.0747 33.719 21.0747 34.424C21.0747 35.129 21.6488 35.703 22.3538 35.703C23.0588 35.703 23.6328 35.129 23.6328 34.424C23.6328 33.719 23.0588 33.1449 22.3538 33.1449Z" fill="#BBBEC1" stroke="#BBBEC1" stroke-width="0.7"/>
</svg>
