<svg width="37" height="35" viewBox="0 0 37 35" fill="none" xmlns="http://www.w3.org/2000/svg">
<path d="M1.30333 32.5391L9.86672 24.2443C7.4109 21.3575 6.06148 17.5539 6.4452 13.4467C7.11032 6.32886 13.0964 0.611051 20.451 0.0473226C29.8842 -0.671276 37.6929 6.89259 36.9511 16.0299C36.3691 23.154 30.4598 28.9523 23.1179 29.5966C18.8778 29.9683 14.951 28.6612 11.9708 26.2824L3.4074 34.5772C2.82542 35.1409 1.88531 35.1409 1.30972 34.5772C0.727745 34.0135 0.727744 33.1028 1.30333 32.5391ZM13.0324 23.2159C17.8162 27.8496 25.5737 27.8496 30.3575 23.2159C35.1412 18.5822 35.1412 11.0679 30.3575 6.43417C25.5737 1.80045 17.8162 1.80045 13.0324 6.43417C8.24869 11.0679 8.2423 18.5822 13.0324 23.2159Z" fill="#7D7D7D"/>
</svg>
