<svg width="37" height="35" viewBox="0 0 37 35" fill="none" xmlns="http://www.w3.org/2000/svg">
<path d="M0.753094 32.5391L9.31649 24.2443C6.86067 21.3575 5.51125 17.5539 5.89497 13.4467C6.56009 6.32886 12.5461 0.61105 19.9008 0.0473226C29.334 -0.671276 37.1427 6.89259 36.4009 16.0299C35.8189 23.154 29.9096 28.9523 22.5677 29.5966C18.3276 29.9683 14.4008 28.6612 11.4206 26.2824L2.85717 34.5772C2.27519 35.1409 1.33508 35.1409 0.759491 34.5772C0.177513 34.0135 0.177513 33.1028 0.753094 32.5391ZM12.4822 23.2159C17.2659 27.8496 25.0235 27.8496 29.8072 23.2159C34.591 18.5822 34.591 11.0679 29.8072 6.43417C25.0235 1.80045 17.2659 1.80045 12.4822 6.43417C7.69846 11.0679 7.69206 18.5822 12.4822 23.2159Z" fill="#7D7D7D"/>
</svg>
