<svg width="94" height="91" viewBox="0 0 94 91" fill="none" xmlns="http://www.w3.org/2000/svg">
<path d="M69.4362 26.6442C74.7872 26.6442 79.125 22.4339 79.125 17.2404C79.125 12.0468 74.7872 7.83655 69.4362 7.83655C64.0852 7.83655 59.7474 12.0468 59.7474 17.2404C59.7474 22.4339 64.0852 26.6442 69.4362 26.6442Z" fill="#36E49E"/>
<path d="M55.4198 78.8819L54.903 75.9824C54.8507 75.6789 54.7076 75.3972 54.4914 75.1722C54.2753 74.9472 53.9957 74.7889 53.6875 74.717C53.3794 74.6452 53.0562 74.6629 52.7584 74.7681C52.4605 74.8733 52.2011 75.0612 52.0125 75.3084L48.6215 79.932C48.373 80.2673 48.2709 80.6842 48.3374 81.0922C48.404 81.5001 48.6337 81.8661 48.9767 82.1105L53.6919 85.4332C53.954 85.6241 54.2696 85.733 54.597 85.7457C54.9244 85.7583 55.2479 85.674 55.5248 85.504C55.8016 85.3339 56.0186 85.0861 56.1469 84.7936C56.2753 84.501 56.3089 84.1774 56.2433 83.8659L55.9365 82.0008C62.8482 80.3769 69.1663 76.9385 74.199 72.0621C79.2317 67.1856 82.7851 61.0592 84.4699 54.3536L86.876 54.8238C87.1844 54.8724 87.5006 54.8331 87.7865 54.7107C88.0723 54.5883 88.3154 54.388 88.4864 54.1342C88.6573 53.8804 88.7487 53.5839 88.7495 53.2806C88.7503 52.9774 88.6604 52.6805 88.4908 52.4258L85.2612 47.7239C85.0244 47.3803 84.6574 47.1414 84.24 47.0593C83.8227 46.9771 83.3888 47.0582 83.0328 47.2851L78.1884 50.4197C77.9126 50.5907 77.6968 50.8391 77.5698 51.1319C77.4427 51.4246 77.4103 51.7479 77.4768 52.059C77.5434 52.37 77.7057 52.6541 77.9424 52.8736C78.179 53.093 78.4788 53.2375 78.802 53.2878L81.3049 53.7737C79.7435 59.8446 76.5096 65.3886 71.9496 69.8117C67.3896 74.2348 61.6755 77.3702 55.4198 78.8819Z" fill="#36E49E"/>
<path d="M69.4362 0C64.6456 0 59.9625 1.37881 55.9793 3.96207C51.996 6.54533 48.8914 10.217 47.0581 14.5128C45.2248 18.8086 44.7451 23.5356 45.6797 28.096C46.6143 32.6564 48.9212 36.8454 52.3087 40.1333C55.6962 43.4211 60.0122 45.6602 64.7108 46.5673C69.4094 47.4744 74.2796 47.0089 78.7056 45.2295C83.1316 43.4501 86.9145 40.4368 89.576 36.5707C92.2376 32.7046 93.6582 28.1593 93.6582 23.5095C93.6582 17.2744 91.1062 11.2947 86.5637 6.88578C82.0212 2.47689 75.8603 0 69.4362 0ZM83.4527 38.634C82.6109 35.6524 80.7832 33.0219 78.2508 31.1468C75.7183 29.2718 72.6214 28.2562 69.4362 28.2562C66.2511 28.2562 63.1541 29.2718 60.6217 31.1468C58.0893 33.0219 56.2616 35.6524 55.4198 38.634C52.2567 35.8804 50.0289 32.26 49.031 28.2513C48.0331 24.2426 48.3121 20.0344 49.8309 16.1828C51.3498 12.3313 54.0371 9.01773 57.5377 6.68021C61.0382 4.34268 65.1872 3.09121 69.4362 3.09121C73.6853 3.09121 77.8342 4.34268 81.3348 6.68021C84.8354 9.01773 87.5227 12.3313 89.0415 16.1828C90.5604 20.0344 90.8393 24.2426 89.8414 28.2513C88.8435 32.26 86.6158 35.8804 83.4527 38.634Z" fill="#36E49E"/>
<path d="M24.2219 70.5288C29.5729 70.5288 33.9107 66.3186 33.9107 61.125C33.9107 55.9314 29.5729 51.7212 24.2219 51.7212C18.871 51.7212 14.5331 55.9314 14.5331 61.125C14.5331 66.3186 18.871 70.5288 24.2219 70.5288Z" fill="#36E49E"/>
<path d="M8.34849 43.179C8.58525 43.5226 8.95227 43.7615 9.36963 43.8437C9.78699 43.9258 10.2209 43.8447 10.5769 43.6179L15.4213 40.4832C15.6965 40.3154 15.9132 40.0708 16.0428 39.7815C16.1725 39.4922 16.2093 39.1717 16.1482 38.8618C16.0871 38.5519 15.9311 38.2671 15.7006 38.0447C15.4701 37.8223 15.1757 37.6725 14.8561 37.6151L12.3532 37.1292C13.9157 31.07 17.1447 25.5364 21.6953 21.1197C26.2458 16.703 31.947 13.569 38.1899 12.0524L38.6744 14.9519C38.7267 15.2553 38.8698 15.5371 39.0859 15.7621C39.3021 15.9871 39.5817 16.1454 39.8898 16.2172C40.198 16.2891 40.5212 16.2713 40.819 16.1662C41.1169 16.061 41.3763 15.8731 41.5648 15.6258L45.0367 10.971C45.2851 10.6357 45.3872 10.2187 45.3207 9.81076C45.2542 9.40281 45.0244 9.03684 44.6814 8.79241L39.9662 5.51675C39.7042 5.32588 39.3885 5.21688 39.0611 5.20424C38.7338 5.1916 38.4102 5.27591 38.1333 5.44597C37.8565 5.61603 37.6395 5.86379 37.5112 6.15637C37.3828 6.44895 37.3492 6.7725 37.4148 7.08405L37.7216 8.94914C30.816 10.5693 24.5021 14.0006 19.4699 18.8682C14.4377 23.7358 10.8809 29.8523 9.18818 36.5493L6.78214 36.0478C6.47375 35.9992 6.15747 36.0385 5.87162 36.1609C5.58578 36.2833 5.34266 36.4835 5.17173 36.7374C5.00081 36.9912 4.90941 37.2877 4.90864 37.5909C4.90786 37.8942 4.99772 38.1911 5.16734 38.4458L8.34849 43.179Z" fill="#36E49E"/>
<path d="M24.2219 90.9037C29.0126 90.9037 33.6956 89.5249 37.6789 86.9416C41.6622 84.3584 44.7668 80.6867 46.6001 76.3909C48.4334 72.0951 48.9131 67.3681 47.9785 62.8077C47.0438 58.2473 44.7369 54.0583 41.3494 50.7704C37.9619 47.4826 33.646 45.2435 28.9474 44.3364C24.2488 43.4293 19.3786 43.8948 14.9526 45.6742C10.5266 47.4536 6.74367 50.4669 4.08213 54.333C1.42059 58.1991 0 62.7444 0 67.3942C0 73.6293 2.55195 79.609 7.09444 84.0179C11.6369 88.4268 17.7979 90.9037 24.2219 90.9037ZM24.2219 47.0193C28.461 47.029 32.5977 48.2841 36.0878 50.6195C39.5778 52.9549 42.2576 56.2611 43.7746 60.103C45.2915 63.945 45.5745 68.1427 44.5863 72.1437C43.5981 76.1448 41.3851 79.7618 38.2384 82.5186C37.3966 79.5371 35.5689 76.9065 33.0365 75.0315C30.504 73.1565 27.4071 72.1409 24.2219 72.1409C21.0368 72.1409 17.9398 73.1565 15.4074 75.0315C12.875 76.9065 11.0473 79.5371 10.2055 82.5186C7.05879 79.7618 4.84573 76.1448 3.85755 72.1437C2.86937 68.1427 3.15237 63.945 4.66931 60.103C6.18626 56.2611 8.86606 52.9549 12.3561 50.6195C15.8461 48.2841 19.9829 47.029 24.2219 47.0193Z" fill="#36E49E"/>
</svg>
