<svg width="296" height="107" viewBox="0 0 296 107" fill="none" xmlns="http://www.w3.org/2000/svg">
<path d="M101.905 104.452V84.0714C101.905 82.6626 100.763 81.5238 99.357 81.5238H53.4999C38.0486 81.5238 25.4761 68.9513 25.4761 53.5C25.4761 38.0487 38.0486 25.4762 53.4999 25.4762L99.357 25.4762C100.763 25.4762 101.905 24.3348 101.905 22.9286V2.54762C101.905 1.14133 100.763 0 99.357 0L53.4999 0C24.0011 0 -5.34058e-05 23.9986 -5.34058e-05 53.5C-5.34058e-05 82.9988 24.0011 107 53.4999 107H99.357C100.763 107 101.905 105.861 101.905 104.452ZM96.8094 101.905H81.5237V86.619H96.8094V101.905ZM96.8094 20.3809H81.5237V5.09524L96.8094 5.09524V20.3809ZM5.09518 53.5C5.09518 26.8086 26.8085 5.09524 53.4999 5.09524L76.4285 5.09524V20.3809L53.4999 20.3809C35.2386 20.3809 20.3809 35.2387 20.3809 53.5C20.3809 71.7613 35.2386 86.619 53.4999 86.619H76.4285V101.905H53.4999C26.8085 101.905 5.09518 80.1914 5.09518 53.5Z" fill="#FF899E"/>
<path d="M107.744 3.80616C107.247 4.30295 107 4.95259 107 5.60478C107 6.25697 107.25 6.91171 107.746 7.40849L111.83 11.4847C112.826 12.4783 114.434 12.4783 115.43 11.4847L117.713 9.20711L119.99 11.4821C120.469 11.9611 121.116 12.2286 121.794 12.2286C122.472 12.2286 123.119 11.9585 123.598 11.4821L125.862 9.21221L128.132 11.4847C129.129 12.4808 130.741 12.4808 131.737 11.4847C132.733 10.4886 132.731 8.87592 131.737 7.87981L127.664 3.80361C127.18 3.32721 126.532 3.05716 125.855 3.05716C125.18 3.05716 124.53 3.32721 124.051 3.80361L121.786 6.07354L119.514 3.80107C118.52 2.80749 116.908 2.80495 115.911 3.80107L113.629 6.07864L111.346 3.80107C110.35 2.80749 108.74 2.81004 107.744 3.80616Z" fill="#8CE4E3"/>
<path d="M107.744 13.9971C107.247 14.4939 107 15.1435 107 15.7957C107 16.4479 107.25 17.1026 107.746 17.5994L111.83 21.6756C112.826 22.6692 114.434 22.6692 115.43 21.6756L117.713 19.398L119.99 21.6731C120.469 22.152 121.116 22.4195 121.794 22.4195C122.472 22.4195 123.119 22.1495 123.598 21.6731L125.862 19.4031L128.132 21.6756C129.129 22.6717 130.741 22.6717 131.737 21.6756C132.733 20.6795 132.731 19.0668 131.737 18.0707L127.664 13.9945C127.18 13.5181 126.532 13.2481 125.855 13.2481C125.18 13.2481 124.53 13.5181 124.051 13.9945L121.786 16.2645L119.514 13.992C118.52 12.9984 116.908 12.9959 115.911 13.992L113.629 16.2696L111.346 13.992C110.35 12.9984 108.74 13.001 107.744 13.9971Z" fill="#8CE4E3"/>
<path d="M115.914 85.3246L113.631 87.6047L111.349 85.3246C110.353 84.3311 108.74 84.331 107.746 85.3297C107.247 85.8265 107 86.4761 107 87.1283C107 87.7805 107.25 88.4353 107.746 88.9321L111.83 93.0082C112.826 94.0018 114.434 94.0018 115.43 93.0082L117.713 90.7281L119.99 93.0057C120.469 93.4846 121.116 93.7521 121.794 93.7521C122.472 93.7521 123.119 93.4846 123.598 93.0031L125.862 90.7332L128.132 93.0057C129.129 94.0018 130.741 94.0018 131.737 93.0057C132.733 92.0096 132.731 90.3995 131.737 89.4034L127.664 85.3272C127.18 84.8508 126.532 84.5807 125.855 84.5807C125.18 84.5807 124.53 84.8482 124.051 85.3297L121.786 87.5996L119.514 85.3272C118.52 84.3336 116.908 84.3336 115.914 85.3246Z" fill="#8CE4E3"/>
<path d="M115.914 95.5151L113.631 97.7952L111.349 95.5151C110.353 94.5215 108.74 94.5215 107.746 95.5201C107.247 96.0169 107 96.6666 107 97.3188C107 97.971 107.25 98.6257 107.746 99.1225L111.83 103.199C112.826 104.192 114.434 104.192 115.43 103.199L117.713 100.919L119.99 103.196C120.469 103.675 121.116 103.943 121.794 103.943C122.472 103.943 123.119 103.675 123.598 103.194L125.862 100.924L128.132 103.196C129.129 104.192 130.741 104.192 131.737 103.196C132.733 102.2 132.731 100.59 131.737 99.5938L127.664 95.5176C127.18 95.0412 126.532 94.7711 125.855 94.7711C125.18 94.7711 124.53 95.0386 124.051 95.5201L121.786 97.7901L119.514 95.5176C118.52 94.524 116.908 94.524 115.914 95.5151Z" fill="#8CE4E3"/>
<path d="M43.6666 93.7124C34.2974 91.3802 25.9817 86.3152 19.9435 79.263C13.9054 72.2108 10.4639 63.544 10.1256 54.5384C9.78729 45.5328 12.5701 36.6642 18.0644 29.2382C23.5587 21.8121 31.4741 16.2209 40.6456 13.2876" stroke="#8CE4E3" stroke-width="7" stroke-linecap="round"/>
<path d="M193.909 2.54767V22.9286C193.909 24.3374 195.05 25.4762 196.456 25.4762H242.314C257.765 25.4762 270.337 38.0487 270.337 53.5C270.337 68.9513 257.765 81.5238 242.314 81.5238H196.456C195.05 81.5238 193.909 82.6652 193.909 84.0714V104.452C193.909 105.859 195.05 107 196.456 107H242.314C271.812 107 295.814 83.0014 295.814 53.5C295.814 24.0012 271.812 4.57764e-05 242.314 4.57764e-05H196.456C195.05 4.57764e-05 193.909 1.13883 193.909 2.54767ZM199.004 5.09528H214.29V20.381H199.004V5.09528ZM199.004 86.6191H214.29V101.905H199.004V86.6191ZM290.718 53.5C290.718 80.1914 269.005 101.905 242.314 101.905H219.385V86.6191H242.314C260.575 86.6191 275.433 71.7613 275.433 53.5C275.433 35.2387 260.575 20.381 242.314 20.381H219.385V5.09528H242.314C269.005 5.09528 290.718 26.8086 290.718 53.5Z" fill="#FF899E"/>
<path d="M188.07 103.194C188.567 102.697 188.814 102.047 188.814 101.395C188.814 100.743 188.564 100.088 188.067 99.5915L183.984 95.5153C182.987 94.5217 181.38 94.5217 180.384 95.5153L178.101 97.7929L175.824 95.5179C175.345 95.0389 174.697 94.7714 174.02 94.7714C173.342 94.7714 172.695 95.0415 172.216 95.5179L169.951 97.7878L167.681 95.5153C166.685 94.5192 165.073 94.5192 164.076 95.5153C163.08 96.5114 163.083 98.1241 164.076 99.1202L168.15 103.196C168.634 103.673 169.281 103.943 169.959 103.943C170.634 103.943 171.284 103.673 171.763 103.196L174.027 100.926L176.3 103.199C177.293 104.193 178.906 104.195 179.902 103.199L182.185 100.921L184.468 103.199C185.464 104.193 187.074 104.19 188.07 103.194Z" fill="#8CE4E3"/>
<path d="M188.07 93.0029C188.567 92.5061 188.814 91.8565 188.814 91.2043C188.814 90.5521 188.564 89.8974 188.067 89.4006L183.984 85.3244C182.987 84.3308 181.38 84.3308 180.384 85.3244L178.101 87.602L175.824 85.3269C175.345 84.848 174.697 84.5805 174.02 84.5805C173.342 84.5805 172.695 84.8505 172.216 85.3269L169.951 87.5969L167.681 85.3244C166.685 84.3283 165.073 84.3283 164.076 85.3244C163.08 86.3205 163.083 87.9332 164.076 88.9293L168.15 93.0055C168.634 93.4819 169.281 93.7519 169.959 93.7519C170.634 93.7519 171.284 93.4819 171.763 93.0055L174.027 90.7355L176.3 93.008C177.293 94.0016 178.906 94.0041 179.902 93.008L182.185 90.7304L184.468 93.008C185.464 94.0016 187.074 93.999 188.07 93.0029Z" fill="#8CE4E3"/>
<path d="M179.9 21.6754L182.182 19.3953L184.465 21.6754C185.461 22.6689 187.074 22.669 188.067 21.6703C188.567 21.1735 188.814 20.5239 188.814 19.8717C188.814 19.2195 188.564 18.5647 188.067 18.0679L183.984 13.9918C182.987 12.9982 181.38 12.9982 180.384 13.9918L178.101 16.2719L175.824 13.9943C175.345 13.5154 174.697 13.2479 174.02 13.2479C173.342 13.2479 172.695 13.5154 172.216 13.9969L169.951 16.2668L167.681 13.9943C166.685 12.9982 165.073 12.9982 164.076 13.9943C163.08 14.9904 163.083 16.6005 164.076 17.5966L168.15 21.6728C168.634 22.1492 169.281 22.4193 169.959 22.4193C170.634 22.4193 171.284 22.1518 171.763 21.6703L174.027 19.4004L176.3 21.6728C177.293 22.6664 178.906 22.6664 179.9 21.6754Z" fill="#8CE4E3"/>
<path d="M179.9 11.4849L182.182 9.20483L184.465 11.4849C185.461 12.4785 187.074 12.4785 188.067 11.4799C188.567 10.9831 188.814 10.3334 188.814 9.68123C188.814 9.02904 188.564 8.37431 188.067 7.87752L183.984 3.80134C182.987 2.80777 181.38 2.80777 180.384 3.80134L178.101 6.08145L175.824 3.80388C175.345 3.32493 174.697 3.05743 174.02 3.05743C173.342 3.05743 172.695 3.32493 172.216 3.80643L169.951 6.07635L167.681 3.80388C166.685 2.80776 165.073 2.80776 164.076 3.80388C163.08 4.8 163.083 6.4101 164.076 7.40622L168.15 11.4824C168.634 11.9588 169.281 12.2289 169.959 12.2289C170.634 12.2289 171.284 11.9614 171.763 11.4799L174.027 9.20993L176.3 11.4824C177.293 12.476 178.906 12.476 179.9 11.4849Z" fill="#8CE4E3"/>
<path d="M253.389 11.9007C262.758 14.2329 269.951 19.9153 275.989 26.9675C282.027 34.0197 285.35 43.4562 285.688 52.4618C286.026 61.4674 283.243 70.3359 277.749 77.762C272.255 85.1881 264.939 91.835 255.768 94.7683" stroke="#8CE4E3" stroke-width="7" stroke-linecap="round"/>
</svg>
