<svg width="25" height="25" viewBox="0 0 25 25" fill="none" xmlns="http://www.w3.org/2000/svg">
<path d="M0.298176 22.5169L6.22399 16.7769C4.52458 14.7792 3.59079 12.1472 3.85632 9.30503C4.31658 4.37953 8.45889 0.422843 13.5483 0.0327469C20.076 -0.464518 25.4796 4.76963 24.9662 11.0926C24.5635 16.0224 20.4743 20.0348 15.3937 20.4806C12.4596 20.7378 9.7423 19.8333 7.67999 18.1872L1.75418 23.9272C1.35146 24.3173 0.700903 24.3173 0.302603 23.9272C-0.100122 23.5371 -0.100122 22.9069 0.298176 22.5169ZM8.41463 16.0653C11.7249 19.2718 17.0931 19.2718 20.4035 16.0653C23.7138 12.8588 23.7138 7.65891 20.4035 4.45241C17.0931 1.2459 11.7249 1.2459 8.41463 4.45241C5.10432 7.65891 5.0999 12.8588 8.41463 16.0653Z" fill="#979797"/>
</svg>
