<svg width="20" height="20" viewBox="0 0 20 20" fill="none" xmlns="http://www.w3.org/2000/svg">
<path d="M10 0C11.9778 0 13.9112 0.586491 15.5557 1.6853C17.2002 2.78412 18.4819 4.3459 19.2388 6.17316C19.9957 8.00043 20.1937 10.0111 19.8078 11.9509C19.422 13.8907 18.4696 15.6725 17.0711 17.0711C15.6725 18.4696 13.8907 19.422 11.9509 19.8078C10.0111 20.1937 8.00043 19.9957 6.17316 19.2388C4.3459 18.4819 2.78412 17.2002 1.6853 15.5557C0.586491 13.9112 0 11.9778 0 10C0.00249863 7.3486 1.05687 4.80651 2.93169 2.93169C4.80651 1.05687 7.3486 0.00249863 10 0ZM10 17.638C11.5112 17.638 12.9885 17.1899 14.245 16.3502C15.5015 15.5106 16.4808 14.3172 17.059 12.9209C17.6372 11.5247 17.7884 9.98836 17.4934 8.5062C17.1984 7.02405 16.4705 5.66266 15.4017 4.59423C14.333 3.52579 12.9714 2.79831 11.4891 2.50377C10.0069 2.20922 8.47057 2.36086 7.07451 2.93951C5.67845 3.51816 4.48535 4.49781 3.64609 5.75458C2.80684 7.01134 2.35914 8.48877 2.3596 10C2.3621 12.0254 3.16795 13.967 4.60032 15.399C6.0327 16.8309 7.97462 17.6362 10 17.638ZM8.23973 6.05474C8.01855 6.27599 7.8943 6.57602 7.8943 6.88886C7.8943 7.2017 8.01855 7.50173 8.23973 7.72298L10.5168 10L8.23973 12.277C8.02482 12.4995 7.90591 12.7975 7.90859 13.1069C7.91128 13.4162 8.03536 13.7121 8.25411 13.9309C8.47285 14.1496 8.76876 14.2737 9.0781 14.2764C9.38744 14.2791 9.68546 14.1602 9.90797 13.9453L13.0203 10.8353C13.1302 10.7257 13.2173 10.5955 13.2768 10.4522C13.3363 10.3088 13.3669 10.1552 13.3669 10C13.3669 9.84481 13.3363 9.69115 13.2768 9.54782C13.2173 9.40448 13.1302 9.27429 13.0203 9.1647L9.90797 6.05474C9.68673 5.83356 9.38669 5.70931 9.07385 5.70931C8.76101 5.70931 8.46098 5.83356 8.23973 6.05474Z" fill="#FF899E"/>
</svg>
