<svg width="35" height="35" viewBox="0 0 35 35" fill="none" xmlns="http://www.w3.org/2000/svg">
<path d="M29.1666 2.91667H27.7083V1.45833C27.7083 1.07156 27.5546 0.700627 27.2811 0.427136C27.0076 0.153645 26.6367 0 26.2499 0C25.8632 0 25.4922 0.153645 25.2187 0.427136C24.9453 0.700627 24.7916 1.07156 24.7916 1.45833V2.91667H18.9583V1.45833C18.9583 1.07156 18.8046 0.700627 18.5311 0.427136C18.2576 0.153645 17.8867 0 17.4999 0C17.1132 0 16.7422 0.153645 16.4687 0.427136C16.1953 0.700627 16.0416 1.07156 16.0416 1.45833V2.91667H10.2083V1.45833C10.2083 1.07156 10.0546 0.700627 9.78114 0.427136C9.50765 0.153645 9.13671 0 8.74994 0C8.36317 0 7.99223 0.153645 7.71874 0.427136C7.44525 0.700627 7.29161 1.07156 7.29161 1.45833V2.91667H5.83327C4.28618 2.91667 2.80245 3.53125 1.70848 4.62521C0.614521 5.71917 -6.10352e-05 7.2029 -6.10352e-05 8.75V29.1667C-6.10352e-05 30.7138 0.614521 32.1975 1.70848 33.2915C2.80245 34.3854 4.28618 35 5.83327 35H29.1666C30.7137 35 32.1974 34.3854 33.2914 33.2915C34.3854 32.1975 34.9999 30.7138 34.9999 29.1667V8.75C34.9999 7.2029 34.3854 5.71917 33.2914 4.62521C32.1974 3.53125 30.7137 2.91667 29.1666 2.91667ZM5.83327 5.83333H7.29161V7.29167C7.29161 7.67844 7.44525 8.04937 7.71874 8.32286C7.99223 8.59635 8.36317 8.75 8.74994 8.75C9.13671 8.75 9.50765 8.59635 9.78114 8.32286C10.0546 8.04937 10.2083 7.67844 10.2083 7.29167V5.83333H16.0416V7.29167C16.0416 7.67844 16.1953 8.04937 16.4687 8.32286C16.7422 8.59635 17.1132 8.75 17.4999 8.75C17.8867 8.75 18.2576 8.59635 18.5311 8.32286C18.8046 8.04937 18.9583 7.67844 18.9583 7.29167V5.83333H24.7916V7.29167C24.7916 7.67844 24.9453 8.04937 25.2187 8.32286C25.4922 8.59635 25.8632 8.75 26.2499 8.75C26.6367 8.75 27.0076 8.59635 27.2811 8.32286C27.5546 8.04937 27.7083 7.67844 27.7083 7.29167V5.83333H29.1666C29.9402 5.83333 30.682 6.14062 31.229 6.68761C31.776 7.23459 32.0833 7.97645 32.0833 8.75V11.6667H2.91661V8.75C2.91661 7.97645 3.2239 7.23459 3.77088 6.68761C4.31786 6.14062 5.05972 5.83333 5.83327 5.83333V5.83333ZM29.1666 32.0833H5.83327C5.05972 32.0833 4.31786 31.776 3.77088 31.2291C3.2239 30.6821 2.91661 29.9402 2.91661 29.1667V14.5833H32.0833V29.1667C32.0833 29.9402 31.776 30.6821 31.229 31.2291C30.682 31.776 29.9402 32.0833 29.1666 32.0833Z" fill="#7D7D7D"/>
<path d="M8.74996 21.8749C9.55537 21.8749 10.2083 21.222 10.2083 20.4166C10.2083 19.6112 9.55537 18.9583 8.74996 18.9583C7.94454 18.9583 7.29163 19.6112 7.29163 20.4166C7.29163 21.222 7.94454 21.8749 8.74996 21.8749Z" fill="#7D7D7D"/>
<path d="M8.74996 27.7084C9.55537 27.7084 10.2083 27.0555 10.2083 26.2501C10.2083 25.4447 9.55537 24.7917 8.74996 24.7917C7.94454 24.7917 7.29163 25.4447 7.29163 26.2501C7.29163 27.0555 7.94454 27.7084 8.74996 27.7084Z" fill="#7D7D7D"/>
<path d="M14.5833 21.8749C15.3887 21.8749 16.0416 21.222 16.0416 20.4166C16.0416 19.6112 15.3887 18.9583 14.5833 18.9583C13.7779 18.9583 13.1249 19.6112 13.1249 20.4166C13.1249 21.222 13.7779 21.8749 14.5833 21.8749Z" fill="#7D7D7D"/>
<path d="M14.5833 27.7084C15.3887 27.7084 16.0416 27.0555 16.0416 26.2501C16.0416 25.4447 15.3887 24.7917 14.5833 24.7917C13.7779 24.7917 13.1249 25.4447 13.1249 26.2501C13.1249 27.0555 13.7779 27.7084 14.5833 27.7084Z" fill="#7D7D7D"/>
<path d="M20.4166 21.8749C21.222 21.8749 21.8749 21.222 21.8749 20.4166C21.8749 19.6112 21.222 18.9583 20.4166 18.9583C19.6112 18.9583 18.9583 19.6112 18.9583 20.4166C18.9583 21.222 19.6112 21.8749 20.4166 21.8749Z" fill="#7D7D7D"/>
<path d="M20.4166 27.7084C21.222 27.7084 21.8749 27.0555 21.8749 26.2501C21.8749 25.4447 21.222 24.7917 20.4166 24.7917C19.6112 24.7917 18.9583 25.4447 18.9583 26.2501C18.9583 27.0555 19.6112 27.7084 20.4166 27.7084Z" fill="#7D7D7D"/>
<path d="M26.25 21.8749C27.0554 21.8749 27.7083 21.222 27.7083 20.4166C27.7083 19.6112 27.0554 18.9583 26.25 18.9583C25.4445 18.9583 24.7916 19.6112 24.7916 20.4166C24.7916 21.222 25.4445 21.8749 26.25 21.8749Z" fill="#7D7D7D"/>
<path d="M26.25 27.7084C27.0554 27.7084 27.7083 27.0555 27.7083 26.2501C27.7083 25.4447 27.0554 24.7917 26.25 24.7917C25.4445 24.7917 24.7916 25.4447 24.7916 26.2501C24.7916 27.0555 25.4445 27.7084 26.25 27.7084Z" fill="#7D7D7D"/>
</svg>
