<svg width="119" height="89" viewBox="0 0 119 89" fill="none" xmlns="http://www.w3.org/2000/svg">
<rect width="119" height="89" fill="white"/>
<path d="M60.0846 12C51.1189 12 43.1378 16.125 37.9835 22.5021H14.6529C9.90027 22.5021 6 26.2876 6 30.9004V60.2947C6 64.9069 9.90093 68.693 14.6529 68.693H18.9793V70.7926C18.9793 74.2414 21.9157 77.0914 25.4689 77.0914H29.7954C33.3485 77.0914 36.285 74.2414 36.285 70.7926V68.693H83.8757V70.7926C83.8757 74.2414 86.8122 77.0914 90.3654 77.0914H94.6918C98.245 77.0914 101.181 74.2414 101.181 70.7926V68.693H105.508C110.261 68.693 114.161 64.908 114.161 60.2947V30.9004C114.161 26.2882 110.26 22.5021 105.508 22.5021H82.2111C77.0588 16.1215 69.0657 12 60.0846 12ZM60.0846 16.1992C73.2492 16.1992 83.8754 26.506 83.8799 39.2824C83.8799 40.4421 84.8443 41.3986 86.0389 41.3984C87.2335 41.3986 88.2021 40.4585 88.2021 39.2988V39.2906H88.2064C88.2064 34.749 87.0386 30.472 85.008 26.7012H105.508C107.89 26.316 109.834 28.557 109.834 30.9004V60.2947C109.834 62.6387 107.923 64.4939 105.508 64.4939H14.6529C12.2384 64.4939 10.3264 62.6381 10.3264 60.2947V58.1951H18.9793C20.1777 58.1951 21.1425 57.2587 21.1425 56.0955C21.1425 54.9323 20.1777 53.9959 18.9793 53.9959H10.3264V47.6971H18.9793C20.1777 47.6971 21.1425 46.7607 21.1425 45.5975C21.1425 44.4344 20.1777 43.498 18.9793 43.498H10.3264V37.1992H18.9793C20.1777 37.1992 21.1425 36.2628 21.1425 35.0996C21.1425 33.9364 20.1777 33 18.9793 33H10.3264V30.9004C10.3264 28.5567 12.2382 26.7012 14.6529 26.7012H35.178C33.1395 30.4766 31.9663 34.757 31.9586 39.2988C31.9586 40.4585 32.9271 41.3986 34.1218 41.3984C35.3164 41.3986 36.285 40.4585 36.285 39.2988C36.2893 26.5224 46.92 16.1992 60.0846 16.1992ZM60.0846 20.3984C49.3579 20.3984 40.603 28.8793 40.603 39.2906C40.603 49.7018 49.3579 58.1992 60.0846 58.1992C70.8113 58.1992 79.5535 49.7018 79.5535 39.2906C79.5535 28.8793 70.8113 20.3984 60.0846 20.3984ZM60.0846 24.5975C68.4732 24.5975 75.2229 31.1487 75.2229 39.2906C75.2229 47.4324 68.4732 54 60.0846 54C51.6961 54 44.9336 47.4324 44.9336 39.2906C44.9336 31.1487 51.6961 24.5975 60.0846 24.5975ZM60.0804 28.8008C58.8857 28.8007 57.9171 29.7407 57.9171 30.9004C57.9171 32.0602 58.8857 33.0002 60.0804 33C63.69 33 66.57 35.7871 66.57 39.2906C66.5698 40.4501 67.5384 41.3984 68.7332 41.3984C69.9281 41.3984 70.8966 40.4501 70.8964 39.2906C70.8964 33.5178 66.0281 28.8008 60.0804 28.8008ZM99.0182 33C97.8236 32.9998 96.8551 33.9399 96.855 35.0996C96.855 36.2594 97.8236 37.1994 99.0182 37.1992C100.213 37.1994 101.181 36.2594 101.181 35.0996C101.181 33.9399 100.213 32.9998 99.0182 33ZM99.0182 41.3984C97.8236 41.3981 96.8551 42.3383 96.855 43.498C96.855 44.6577 97.8236 45.5978 99.0182 45.5975C100.213 45.5978 101.181 44.6577 101.181 43.498C101.181 42.3383 100.213 41.3981 99.0182 41.3984ZM23.3057 68.693H31.9586V70.7926C31.9586 71.9753 31.0138 72.8922 29.7954 72.8922H25.4689C24.2504 72.8922 23.3057 71.9753 23.3057 70.7926V68.693ZM88.2021 68.693H96.855V70.7926C96.855 71.9753 95.9103 72.8922 94.6918 72.8922H90.3654C89.1468 72.8922 88.2021 71.9753 88.2021 70.7926V68.693Z" fill="#36E49E"/>
</svg>
