<svg width="101" height="89" viewBox="0 0 101 89" fill="none" xmlns="http://www.w3.org/2000/svg">
<path d="M83.9602 75.3288H62.5815C62.3223 75.8318 62.0632 76.3348 61.6745 76.8379C59.8605 79.353 56.8805 80.8621 53.6413 80.8621C51.6977 80.8621 49.7542 80.2333 48.1994 79.2273L35.8904 70.8015L31.4851 67.6576L31.0964 67.4061C30.5781 67.0288 30.4485 66.2742 30.7077 65.7712C31.0964 65.2682 31.8738 65.1424 32.3921 65.394L38.4818 69.2924L49.7542 76.8379C50.2725 77.2151 50.9203 77.4667 51.4386 77.7182C52.0864 77.9697 52.8638 78.0954 53.6413 78.0954C55.8439 78.0954 57.917 77.0894 59.3423 75.203C61.5449 72.1848 60.6379 68.0349 57.5283 66.0227L26.9502 45.5243C25.7841 44.7697 24.4884 44.3925 23.0631 44.3925H0V66.5258H13.8638L44.5715 87.4015C45.7376 88.156 47.0333 88.6591 48.4585 88.6591H83.8307C87.5881 88.6591 90.6978 85.6409 90.6978 81.9939C90.8273 78.2212 87.7177 75.3288 83.9602 75.3288Z" fill="#36E49E"/>
<path d="M40.2958 24.2715L38.741 49.0457L62.0633 37.2245L40.2958 24.2715Z" fill="#36E49E"/>
<path d="M67.5005 52.012L86.8915 65.0375L100.312 46.2168L80.9207 33.1913L67.5005 52.012Z" fill="#36E49E"/>
<path d="M22.6744 24.6488C29.1147 24.6488 34.3356 19.5815 34.3356 13.3306C34.3356 7.07977 29.1147 2.01245 22.6744 2.01245C16.2342 2.01245 11.0133 7.07977 11.0133 13.3306C11.0133 19.5815 16.2342 24.6488 22.6744 24.6488Z" fill="#36E49E"/>
<path d="M71.3921 7.79696L67.3755 0L63.4884 7.79696L54.4187 9.05453L60.8971 15.2166L59.4718 23.8939L67.3755 19.8697L75.4087 23.8939L73.8539 15.2166L80.4619 9.05453L71.3921 7.79696Z" fill="#36E49E"/>
</svg>
