<svg width="96" height="94" viewBox="0 0 96 94" fill="none" xmlns="http://www.w3.org/2000/svg">
<path d="M95.808 12.99C95.4827 12.0395 94.5067 11.5643 93.5308 11.5643H84.0964V2.37622C84.0964 1.42573 83.4457 0.475245 82.6324 0.158415C81.6564 -0.158415 80.6804 -8.9407e-07 79.8671 0.633659L68.4808 11.7227C67.9928 12.198 67.8301 12.8316 67.8301 13.4653L67.6675 24.0791L57.0944 34.3761C51.0759 29.1484 43.1055 25.9801 34.4844 25.9801C15.4529 25.9801 0 41.0295 0 59.564C0 78.0986 15.4529 93.148 34.4844 93.148C53.5159 93.148 68.9688 78.0986 68.9688 59.564C68.9688 51.168 65.8782 43.5641 60.673 37.7028L71.0834 27.5642H82.1444C82.7951 27.5642 83.4457 27.2474 83.9337 26.9305L95.32 15.8415C95.9707 15.0494 96.1334 13.9405 95.808 12.99ZM72.71 14.5742L79.0538 8.396V12.99L72.71 19.1682V14.5742ZM63.9262 59.564C63.9262 75.4055 50.7506 88.2372 34.4844 88.2372C18.2182 88.2372 5.04253 75.4055 5.04253 59.564C5.04253 43.7225 18.2182 30.8909 34.4844 30.8909C41.8042 30.8909 48.4733 33.4256 53.6785 37.8612L48.3107 43.0889C44.5694 40.079 39.6896 38.3364 34.4844 38.3364C22.2847 38.3364 12.525 47.9997 12.525 59.7225C12.525 71.4452 22.4474 81.1085 34.4844 81.1085C46.5214 81.1085 56.4438 71.4452 56.4438 59.7225C56.4438 54.8116 54.6545 50.2176 51.7266 46.574L57.0944 41.3463C61.3236 46.2572 63.9262 52.5938 63.9262 59.564ZM51.4013 59.564C51.4013 68.7521 43.7561 76.1976 34.3217 76.1976C24.8873 76.1976 17.4049 68.7521 17.4049 59.564C17.4049 50.376 25.05 42.9305 34.4844 42.9305C38.3883 42.9305 41.9668 44.1978 44.7321 46.2572L39.3643 51.4849C37.9003 50.6928 36.2737 50.2176 34.4844 50.2176C29.2792 50.2176 24.8873 54.3363 24.8873 59.564C24.8873 64.7917 29.1165 68.9105 34.4844 68.9105C39.8522 68.9105 44.0815 64.7917 44.0815 59.564C44.0815 57.9799 43.5935 56.3957 42.9428 55.1284L48.3107 49.9007C50.2626 52.5938 51.4013 55.9205 51.4013 59.564ZM39.0389 59.564C39.0389 61.9403 36.9243 63.9997 34.4844 63.9997C32.0445 63.9997 29.9298 61.9403 29.9298 59.564C29.9298 57.1878 32.0445 55.1284 34.4844 55.1284C34.8097 55.1284 35.2977 55.1284 35.623 55.2868L32.8578 57.9799C31.8818 58.9304 31.8818 60.5145 32.8578 61.465C33.3458 61.9403 33.9964 62.0987 34.647 62.0987C35.2977 62.0987 35.9483 61.9403 36.4363 61.465L39.0389 58.9304C39.0389 59.0888 39.0389 59.4056 39.0389 59.564ZM81.0058 22.6533H76.1259L82.4697 16.4752H87.3496L81.0058 22.6533Z" fill="#36E49E"/>
</svg>
